<?xml version="1.0" encoding="UTF-8"?>
<svg width="20px" height="20px" viewBox="0 0 20 20" version="1.1" xmlns="http://www.w3.org/2000/svg" xmlns:xlink="http://www.w3.org/1999/xlink">
    <!-- Generator: Sketch 48.1 (47250) - http://www.bohemiancoding.com/sketch -->
    <title>Shape</title>
    <desc>Created with Sketch.</desc>
    <defs></defs>
    <g id="UI-Deposit" stroke="none" stroke-width="1" fill="none" fill-rule="evenodd" transform="translate(-1390.000000, -288.000000)" opacity="0.800000012">
        <g id="SelectedItems" transform="translate(1090.000000, 268.000000)" fill="#FFFFFF" fill-rule="nonzero">
            <g id="Item">
                <path d="M317.074508,22.925594 C313.173852,19.0249944 306.826677,19.0246096 302.925636,22.925594 C299.024596,26.8265783 299.02498,33.1732774 302.925636,37.0742617 C306.826292,40.9752461 313.173467,40.9752461 317.074508,37.0742617 C320.975164,33.1732774 320.975164,26.8261935 317.074508,22.925594 Z M313.945364,33.9451629 C313.64484,34.2456826 313.157691,34.2456826 312.857167,33.9451629 L310.000072,31.0881093 L307.007145,34.0809931 C306.706621,34.3815128 306.219472,34.3815128 305.918948,34.0809931 C305.618424,33.7804734 305.618424,33.2933314 305.918948,32.9928117 L308.911875,29.9999279 L306.05478,27.1428743 C305.754256,26.8423546 305.754256,26.3548278 306.05478,26.0546929 C306.355304,25.7541732 306.842453,25.7541732 307.142977,26.0546929 L310.000072,28.9117464 L312.72095,26.1909079 C313.021474,25.8903882 313.508623,25.8903882 313.809147,26.1909079 C314.109671,26.4914276 314.109671,26.9785697 313.809147,27.2790894 L311.088269,29.9999279 L313.945364,32.8569814 C314.245888,33.1575011 314.245888,33.6446431 313.945364,33.9451629 Z" id="Shape"></path>
            </g>
        </g>
    </g>
</svg>