<?xml version="1.0" encoding="UTF-8"?>
<svg width="40px" height="40px" viewBox="0 0 40 40" version="1.1" xmlns="http://www.w3.org/2000/svg" xmlns:xlink="http://www.w3.org/1999/xlink">
    <!-- Generator: Sketch 47 (45396) - http://www.bohemiancoding.com/sketch -->
    <title>Avatar-chat</title>
    <desc>Created with Sketch.</desc>
    <defs></defs>
    <g id="UI" stroke="none" stroke-width="1" fill="none" fill-rule="evenodd">
        <g id="UI-Profile" transform="translate(-15.000000, -182.000000)">
            <g id="Chat">
                <g id="User_Chats" transform="translate(15.000000, 182.000000)">
                    <g id="Ch1">
                        <g id="Avatar-chat">
                            <path d="M10.9090909,0.909090909 L18.0099256,0.199007438 L18.0099256,0.199007438 C19.3333416,0.0666658436 20.6666584,0.0666658436 21.9900744,0.199007438 L29.0909091,0.909090909 L29.0909091,0.909090909 C34.3734898,1.43734898 38.5446832,5.62826422 39.0480178,10.9132779 L39.8099113,18.9131597 L39.8099113,18.9131597 C39.9363203,20.2404541 39.9296872,21.5770628 39.7901109,22.9030372 L39.0909091,29.5454545 L39.0909091,29.5454545 C38.5614409,34.5754025 34.5734742,38.5426526 29.5408369,39.0459163 L21.9900744,39.8009926 L21.9900744,39.8009926 C20.6666584,39.9333342 19.3333416,39.9333342 18.0099256,39.8009926 L10.4591631,39.0459163 L10.4591631,39.0459163 C5.42652575,38.5426526 1.43855912,34.5754025 0.909090909,29.5454545 L0.209889084,22.9030372 L0.209889084,22.9030372 C0.0703128257,21.5770628 0.0636796956,20.2404541 0.19008869,18.9131597 L0.951982192,10.9132779 L0.951982192,10.9132779 C1.45531683,5.62826422 5.62651022,1.43734898 10.9090909,0.909090909 Z" id="Rectangle" fill="#41434D"></path>
                            <path d="M20.3536192,20.1010101 C23.6169361,20.1010101 26.2626263,16.8449316 26.2626263,12.8283253 C26.2626263,8.81163407 25.3940073,5.55555556 20.3536192,5.55555556 C15.3132311,5.55555556 14.4444444,8.81163407 14.4444444,12.8283253 C14.4444444,16.8449316 17.0901346,20.1010101 20.3536192,20.1010101 Z" id="Shape" fill="#626273" fill-rule="nonzero"></path>
                            <path d="M31.6034393,31.2992622 C31.4920127,24.3463897 30.5737891,22.3651985 23.5472523,21.1111111 C23.5472523,21.1111111 22.5581597,22.3575145 20.2527814,22.3575145 C17.9474031,22.3575145 16.9581397,21.1111111 16.9581397,21.1111111 C10.0082781,22.3515194 9.0342131,24.3033258 8.90613653,31.073388 C8.89563425,31.6262099 8.89076735,31.6552569 8.88888889,31.5910832 C8.88931581,31.7113243 8.88982812,31.9337365 8.88982812,32.3215647 C8.88982812,32.3215647 10.5626789,35.6565657 20.2527814,35.6565657 C29.9427132,35.6565657 31.6157347,32.3215647 31.6157347,32.3215647 C31.6157347,32.0723853 31.6159055,31.8991166 31.6161616,31.7812398 C31.6142832,31.8209261 31.6105262,31.7440022 31.6034393,31.2992622 Z" id="Shape" fill="#626273" fill-rule="nonzero"></path>
                        </g>
                    </g>
                </g>
            </g>
        </g>
    </g>
</svg>