<?xml version="1.0" encoding="UTF-8"?>
<svg width="21px" height="20px" viewBox="0 0 21 20" version="1.1" xmlns="http://www.w3.org/2000/svg" xmlns:xlink="http://www.w3.org/1999/xlink">
    <!-- Generator: Sketch 48.1 (47250) - http://www.bohemiancoding.com/sketch -->
    <title>piggy-bank</title>
    <desc>Created with Sketch.</desc>
    <defs></defs>
    <g id="UI-Deposit" stroke="none" stroke-width="1" fill="none" fill-rule="evenodd" transform="translate(-1327.000000, -54.000000)">
        <g id="Header" transform="translate(0.000000, 24.000000)" fill="#FFBF00" fill-rule="nonzero">
            <g id="piggy-bank" transform="translate(1327.000000, 30.000000)">
                <path d="M19.4537825,6.94958064 L19.1480002,6.94958064 C18.6397987,5.6679477 17.7870538,4.50474947 16.6500605,3.56150146 C16.4907092,2.99470669 16.6112994,2.38138399 17.0204447,1.74691224 C17.2487047,1.38737824 17.261625,0.955937447 17.054899,0.587943828 C16.848173,0.224180021 16.4605616,0 16.0428027,0 C15.995428,0 15.9437465,0.00422981171 15.8963718,0.00845962343 C14.3243924,0.198801151 13.3682845,0.88826046 12.795481,1.54388128 C12.1063942,1.33239069 11.2321153,1.26894351 11.0684572,1.25625408 C10.6636187,1.21395596 10.2501666,1.18857709 9.84102127,1.18857709 C7.22679811,1.18857709 4.76761949,2.06837793 2.91139185,3.65878713 C1.03363024,5.27034539 0,7.42331956 0,9.7158775 C0,10.3080511 0.0689086828,10.9002248 0.211032841,11.479709 C0.215339634,11.4923984 0.215339634,11.5050879 0.219646427,11.5135475 L0.223953219,11.5346965 C0.37038417,12.1184106 0.590030597,12.6894351 0.869972121,13.2350808 C1.33941252,14.2248568 1.89929557,15.0538999 2.5280873,15.6926015 C3.39805942,16.5724023 3.54879717,17.6890726 3.57033113,18.1374326 L3.57033113,18.3573828 C3.57033113,18.3658425 3.57033113,18.3785319 3.57033113,18.3869915 C3.57033113,18.4335194 3.57463792,18.4758176 3.58325151,18.5181157 C3.66508057,19.0426123 4.12590738,19.4444444 4.67717685,19.4444444 L7.88573739,19.4444444 C8.49730195,19.4444444 8.99258311,18.9580161 8.99258311,18.3573828 L8.99258311,18.2135692 C9.44910313,18.2474077 9.90992995,18.2516375 10.3707568,18.2304885 L10.3707568,18.3573828 C10.3707568,18.9580161 10.8660379,19.4444444 11.4776025,19.4444444 L14.686163,19.4444444 C15.2977276,19.4444444 15.7930087,18.9580161 15.7930087,18.3573828 L15.7930087,17.5875571 C15.7973155,17.409905 15.8662242,16.5681725 16.680208,15.8406449 C16.7189692,15.8068064 16.7620371,15.7729679 16.8007982,15.7391294 C16.805105,15.7348996 16.805105,15.7348996 16.8094118,15.7306698 C16.8223322,15.7222101 16.8309458,15.7137505 16.8395594,15.7010611 C17.9119507,14.7578131 18.7216278,13.6073043 19.1910682,12.3510502 L19.4451689,12.3510502 C20.3022207,12.3510502 20.9999211,11.6658207 20.9999211,10.8240882 L20.9999211,8.46808305 C21.0085347,7.63058033 20.3108343,6.94958064 19.4537825,6.94958064 Z M16.0652805,1.13781935 C16.0597249,1.13781935 16.0597249,1.13781935 16.0652805,1.13781935 C16.0597249,1.13358954 16.0597249,1.13358954 16.0597249,1.13358954 C16.0597249,1.13358954 16.0597249,1.13358954 16.0597249,1.13781935 L15.9652805,0.571024581 L16.0652805,1.13781935 Z" id="Shape"></path>
            </g>
        </g>
    </g>
</svg>