<?xml version="1.0" encoding="UTF-8"?>
<svg width="28px" height="25px" viewBox="0 0 28 25" version="1.1" xmlns="http://www.w3.org/2000/svg" xmlns:xlink="http://www.w3.org/1999/xlink">
    <!-- Generator: Sketch 48.1 (47250) - http://www.bohemiancoding.com/sketch -->
    <title>steam</title>
    <desc>Created with Sketch.</desc>
    <defs></defs>
    <g id="UI-SimpleMode" stroke="none" stroke-width="1" fill="none" fill-rule="evenodd" transform="translate(-1232.000000, -52.000000)">
        <g id="Header" transform="translate(0.000000, 24.000000)" fill="#12121A" fill-rule="nonzero">
            <g id="Login" transform="translate(1220.000000, 21.000000)">
                <g id="steam" transform="translate(12.000000, 7.000000)">
                    <path d="M19.2500523,6.16720936 C19.2500523,7.62697231 20.425225,8.81031089 21.8750366,8.81031089 C23.3247936,8.81031089 24.5000209,7.62697231 24.5000209,6.16720936 C24.5000209,4.70744642 23.3247936,3.52410784 21.8750366,3.52410784 C20.425225,3.52410784 19.2500523,4.70744642 19.2500523,6.16720936 Z M26.2059873,1.8063121 C23.8140797,-0.602104034 19.9359935,-0.602104034 17.5438672,1.8063121 C16.5710371,2.78585654 15.9938686,4.01291642 15.8124713,5.28617552 L10.2154032,13.8274682 C9.4632905,13.8661787 8.7176309,14.0591801 8.02884595,14.4060872 L3.71151239,11.0079397 C2.7121043,10.2212315 1.26858168,10.3994206 0.48737541,11.4057265 C-0.293885545,12.4120323 -0.11697254,13.8655179 0.882435548,14.652171 L5.14623037,18.008139 C4.68248314,19.8468016 5.16460526,21.8774744 6.59352641,23.3161476 C8.75109945,25.4885568 12.2490551,25.4885568 14.4066281,23.3161476 C15.7318077,21.981877 16.2426953,20.1381485 15.9400018,18.4108265 L22.7500314,12.2716175 L22.749922,12.2715625 C24.0145082,12.088803 25.2331572,11.5077061 26.2059873,10.5281617 C28.5980042,8.11969049 28.5980042,4.2147833 26.2059873,1.8063121 Z M10.5000499,23.0912638 C8.46596053,23.0912638 6.81692351,21.4310656 6.81692351,19.382717 C6.81692351,19.3631691 6.81807194,19.3437863 6.81840006,19.3242384 L8.64801412,20.7642882 C9.06801161,21.0948411 9.56626645,21.255024 10.0609666,21.255024 C10.7435172,21.255024 11.4191772,20.9499661 11.8721511,20.3665014 C12.6534121,19.3601956 12.4764991,17.9066549 11.477091,17.120112 L9.74077322,15.7535183 C9.98582644,15.7018127 10.239739,15.6742804 10.5000499,15.6742804 C12.534194,15.6742804 14.1832857,17.3345886 14.1832857,19.3828822 C14.1832857,21.4310105 12.534194,23.0912638 10.5000499,23.0912638 Z M21.8750366,10.5723786 C19.4587386,10.5723786 17.5000628,8.60012925 17.5000628,6.16720936 C17.5000628,3.73428947 19.4587386,1.76204015 21.8750366,1.76204015 C24.29128,1.76204015 26.2500105,3.73428947 26.2500105,6.16720936 C26.2500105,8.60012925 24.29128,10.5723786 21.8750366,10.5723786 Z" id="Shape"></path>
                </g>
            </g>
        </g>
    </g>
</svg>