<?xml version="1.0" encoding="UTF-8"?>
<svg width="18px" height="16px" viewBox="0 0 18 16" version="1.1" xmlns="http://www.w3.org/2000/svg" xmlns:xlink="http://www.w3.org/1999/xlink">
    <!-- Generator: Sketch 47 (45396) - http://www.bohemiancoding.com/sketch -->
    <title>Volume-on</title>
    <desc>Created with Sketch.</desc>
    <defs></defs>
    <g id="UI" stroke="none" stroke-width="1" fill="none" fill-rule="evenodd">
        <g id="UI-Profile" transform="translate(-1266.000000, -12.000000)" fill-rule="nonzero" fill="#626273">
            <g id="Socket">
                <g id="Volume-on" transform="translate(1266.000000, 12.000000)">
                    <path d="M2.85353846,4.75384615 L0,4.75384615 L0,11.1107692 L2.85353846,11.1107692 L8.248,15.112 C8.248,15.112 9.23938462,15.9403077 9.23938462,15.0843077 C9.23938462,14.2258462 9.23938462,1.43692308 9.23938462,0.656 C9.23938462,-0.016 8.36676923,0.640615385 8.36676923,0.640615385 L2.85353846,4.75384615 Z" id="Shape"></path>
                    <path d="M12.3113846,3.51323077 C12.0276923,3.23015385 11.5686154,3.23015385 11.2849231,3.51323077 C11.0012308,3.79753846 11.0012308,4.25846154 11.2849231,4.53846154 C12.2190769,5.47446154 12.6818462,6.68923077 12.6836923,7.91323077 C12.6812308,9.13969231 12.2184615,10.3618462 11.2849231,11.2947692 C11.0012308,11.5772308 11.0012308,12.04 11.2849231,12.3236923 C11.4264615,12.4652308 11.6116923,12.5353846 11.7993846,12.5353846 C11.9846154,12.5353846 12.1698462,12.4658462 12.3113846,12.3236923 C13.528,11.1058462 14.136,9.50646154 14.1347692,7.91323077 C14.136,6.32184615 13.5261538,4.72738462 12.3113846,3.51323077 Z" id="Shape"></path>
                    <path d="M14.2812308,1.22707692 C13.9938462,0.942153846 13.536,0.942153846 13.2498462,1.22707692 C12.9686154,1.512 12.9686154,1.97046154 13.2498462,2.25538462 C14.8184615,3.82338462 15.6018462,5.86707692 15.6030769,7.92061538 C15.6018462,9.98338462 14.8215385,12.04 13.2498462,13.6129231 C12.9673846,13.8966154 12.9686154,14.3556923 13.2498462,14.6406154 C13.3926154,14.7815385 13.5803077,14.8523077 13.7655385,14.8523077 C13.952,14.8523077 14.1390769,14.7815385 14.2812308,14.6406154 C16.1310769,12.7833846 17.0566154,10.3495385 17.0566154,7.92061538 C17.0566154,5.49969231 16.1249231,3.07446154 14.2812308,1.22707692 Z" id="Shape"></path>
                </g>
            </g>
        </g>
    </g>
</svg>