<?xml version="1.0" encoding="UTF-8"?>
<svg width="20px" height="16px" viewBox="0 0 20 16" version="1.1" xmlns="http://www.w3.org/2000/svg" xmlns:xlink="http://www.w3.org/1999/xlink">
    <!-- Generator: Sketch 48.1 (47250) - http://www.bohemiancoding.com/sketch -->
    <title>Volume-off</title>
    <desc>Created with Sketch.</desc>
    <defs></defs>
    <g id="UI-Components" stroke="none" stroke-width="1" fill="none" fill-rule="evenodd" transform="translate(-603.000000, -704.000000)">
        <g id="Notification" transform="translate(400.000000, 704.000000)" fill="#FFFFFF">
            <g id="Volume-off" transform="translate(203.000000, 0.000000)">
                <path d="M2.85353846,4.75384615 L0,4.75384615 L0,11.1107692 L2.85353846,11.1107692 L8.248,15.112 C8.248,15.112 9.23938462,15.9403077 9.23938462,15.0843077 C9.23938462,14.2258462 9.23938462,1.43692308 9.23938462,0.656 C9.23938462,-0.016 8.36676923,0.640615385 8.36676923,0.640615385 L2.85353846,4.75384615 Z" id="Shape" fill-rule="nonzero"></path>
                <path d="M16.815864,7.75520382 L19.2907377,5.28033009 C19.5836309,4.98743687 19.5836309,4.51256313 19.2907377,4.21966991 C18.9978445,3.9267767 18.5229708,3.9267767 18.2300776,4.21966991 L15.7552038,6.69454365 L13.2803301,4.21966991 C12.9874369,3.9267767 12.5125631,3.9267767 12.2196699,4.21966991 C11.9267767,4.51256313 11.9267767,4.98743687 12.2196699,5.28033009 L14.6945436,7.75520382 L12.2196699,10.2300776 C11.9267767,10.5229708 11.9267767,10.9978445 12.2196699,11.2907377 C12.5125631,11.5836309 12.9874369,11.5836309 13.2803301,11.2907377 L15.7552038,8.81586399 L18.2300776,11.2907377 C18.5229708,11.5836309 18.9978445,11.5836309 19.2907377,11.2907377 C19.5836309,10.9978445 19.5836309,10.5229708 19.2907377,10.2300776 L16.815864,7.75520382 Z" id="Combined-Shape"></path>
            </g>
        </g>
    </g>
</svg>